# xmcd CD database file
# Copyright (C) 1996 Ti Kan
#
# Track frame offsets:
# 	150
# 	14302
# 	27522
# 	40267
# 	50372
# 	62865
# 	73367
# 	86590
# 	99575
# 	112705
# 	130310
# 	142637
# 	154217
# 	168830
# 	181930
# 	193947
#
# Disc length: 2741 seconds
#
# Revision: 1
# Processed by: cddbd v1.4b41PL1 Copyright (c) Steve Scherf et al.
# Submitted via: DiscPlay 3.4.1
#
DISCID=d70ab310
DTITLE=Petula Clark - The Origanal Hits
DYEAR=1900
DGENRE=
TTITLE0=Downtown
TTITLE1=A Sign Of The Times
TTITLE2=Colour My World
TTITLE3=Ya Ya Twist
TTITLE4=My Love
TTITLE5=Who Am I
TTITLE6=Don't Sleep In The Subway
TTITLE7=The Other Man' s Grass
TTITLE8=I Couldn't Live Without Your Love
TTITLE9=Kiss My Goodbye
TTITLE10=I Know A Place
TTITLE11=Round Every Corner
TTITLE12=This Is My Song
TTITLE13=Sailor
TTITLE14=Romeo
TTITLE15=Suddenly There's A Valley
EXTD=
EXTT0=
EXTT1=
EXTT2=
EXTT3=
EXTT4=
EXTT5=
EXTT6=
EXTT7=
EXTT8=
EXTT9=
EXTT10=
EXTT11=
EXTT12=
EXTT13=
EXTT14=
EXTT15=
PLAYORDER=
